<?xml version="1.0" encoding="UTF-8" standalone="no"?>
<svg
   xmlns:dc="http://purl.org/dc/elements/1.1/"
   xmlns:cc="http://creativecommons.org/ns#"
   xmlns:rdf="http://www.w3.org/1999/02/22-rdf-syntax-ns#"
   xmlns:svg="http://www.w3.org/2000/svg"
   xmlns="http://www.w3.org/2000/svg"
   xmlns:sodipodi="http://sodipodi.sourceforge.net/DTD/sodipodi-0.dtd"
   xmlns:inkscape="http://www.inkscape.org/namespaces/inkscape"
   sodipodi:docname="KreinBubbleCartoon.svg"
   inkscape:version="1.0 (4035a4f, 2020-05-01)"
   id="svg8"
   version="1.1"
   viewBox="0 0 210 297"
   height="297mm"
   width="210mm">
  <defs
     id="defs2" />
  <sodipodi:namedview
     inkscape:window-maximized="0"
     inkscape:window-y="23"
     inkscape:window-x="0"
     inkscape:window-height="943"
     inkscape:window-width="1587"
     showgrid="true"
     inkscape:document-rotation="0"
     inkscape:current-layer="layer1"
     inkscape:document-units="mm"
     inkscape:cy="360.7838"
     inkscape:cx="510.34346"
     inkscape:zoom="0.7377049"
     inkscape:pageshadow="2"
     inkscape:pageopacity="0.0"
     borderopacity="1.0"
     bordercolor="#666666"
     pagecolor="#ffffff"
     id="base">
    <inkscape:grid
       id="grid833"
       type="xygrid" />
  </sodipodi:namedview>
  <metadata
     id="metadata5">
    <rdf:RDF>
      <cc:Work
         rdf:about="">
        <dc:format>image/svg+xml</dc:format>
        <dc:type
           rdf:resource="http://purl.org/dc/dcmitype/StillImage" />
        <dc:title></dc:title>
      </cc:Work>
    </rdf:RDF>
  </metadata>
  <g
     id="layer1"
     inkscape:groupmode="layer"
     inkscape:label="Layer 1">
    <g
       transform="matrix(0.01478571,0,0,-0.0148,2,39.479353)"
       id="g845">
      <path
         id="path847"
         style="fill:#ffffff;fill-opacity:1;fill-rule:nonzero;stroke:none"
         d="M 0,0 H 14000 V 2500 H 0 Z" />
      <path
         id="path849"
         style="fill:#ffffff;fill-opacity:1;fill-rule:nonzero;stroke:none"
         d="M 0,0 H 14000 V 2500 H 0 Z" />
      <path
         id="path851"
         style="fill:#ffffff;fill-opacity:1;fill-rule:nonzero;stroke:none"
         d="M 1900,280 H 3930 V 2310 H 1900 Z" />
      <path
         id="path853"
         style="fill:none;stroke:#262626;stroke-width:20;stroke-linecap:square;stroke-linejoin:round;stroke-miterlimit:10;stroke-dasharray:none;stroke-opacity:1"
         d="M 2915,280 V 2310" />
      <path
         id="path855"
         style="fill:none;stroke:#000000;stroke-width:30;stroke-linecap:butt;stroke-linejoin:bevel;stroke-miterlimit:10;stroke-dasharray:30, 30;stroke-dashoffset:0;stroke-opacity:1"
         d="m 3422.5,1295 -1.02,32.19 -3.06,32.06 -5.09,31.79 -7.1,31.42 -9.07,30.9 -11.01,30.26 -12.91,29.5 -14.76,28.62 -16.54,27.64 -18.27,26.52 -19.9,25.31 -21.48,24.01 -22.95,22.59 -24.33,21.08 -25.63,19.51 -26.81,17.84 -27.89,16.1 -28.86,14.3 -29.7,12.44 -30.43,10.53 -31.04,8.58 -31.52,6.6 -31.88,4.58 -32.1,2.56 -32.2,0.51 -32.17,-1.54 -32,-3.57 -31.72,-5.59 -31.3,-7.59 -30.75,-9.56 -30.08,-11.5 -29.29,-13.37 -28.39,-15.21 -27.36,-16.98 -26.24,-18.68 -24.99,-20.31 -23.66,-21.85 -22.22,-23.3 -20.7,-24.67 -19.1,-25.94 -17.41,-27.09 -15.65,-28.14 -13.85,-29.08 -11.96,-29.89 -10.05,-30.6 -8.09,-31.17 -6.1,-31.62 -4.07,-31.95 -2.04,-32.14 v -32.2 l 2.04,-32.14 4.07,-31.95 6.1,-31.62 8.09,-31.17 10.05,-30.6 11.96,-29.89 13.85,-29.08 15.65,-28.14 17.41,-27.09 19.1,-25.939 20.7,-24.672 22.22,-23.3 23.66,-21.848 24.99,-20.313 26.24,-18.679 27.36,-16.981 28.39,-15.207 29.29,-13.371 30.08,-11.5 30.75,-9.558 31.3,-7.59 31.72,-5.59 32,-3.57 32.17,-1.543 32.2,0.511 32.1,2.559 31.88,4.582 31.52,6.598 31.04,8.582 30.43,10.531 29.7,12.437 28.86,14.301 27.89,16.102 26.81,17.84 25.63,19.507 24.33,21.082 22.95,22.59 21.48,24.008 19.9,25.313 18.27,26.518 16.54,27.64 14.76,28.62 12.91,29.5 11.01,30.26 9.07,30.9 7.1,31.41 5.09,31.8 3.06,32.06 1.02,32.19" />
      <path
         id="path857"
         style="fill:#ff0000;fill-opacity:1;fill-rule:nonzero;stroke:none"
         d="m 3003,2310 c 0,48.6 -39.4,88 -88,88 -48.6,0 -88,-39.4 -88,-88 0,-48.6 39.4,-88 88,-88 48.6,0 88,39.4 88,88" />
      <path
         id="path859"
         style="fill:#ff0000;fill-opacity:1;fill-rule:nonzero;stroke:none"
         d="m 2915,2395.5 c 47.22,0 85.5,-38.28 85.5,-85.5 v 0 c 0,-47.22 -38.28,-85.5 -85.5,-85.5 -47.22,0 -85.5,38.28 -85.5,85.5 0,47.22 38.28,85.5 85.5,85.5 z m 0,5 c -49.98,0 -90.5,-40.52 -90.5,-90.5 0,-49.98 40.52,-90.5 90.5,-90.5 49.98,0 90.5,40.52 90.5,90.5 v 0 c 0,49.98 -40.52,90.5 -90.5,90.5" />
      <path
         id="path861"
         style="fill:#ff0000;fill-opacity:1;fill-rule:nonzero;stroke:none"
         d="m 3003,1548.75 c 0,48.6 -39.4,88 -88,88 -48.6,0 -88,-39.4 -88,-88 0,-48.6 39.4,-88 88,-88 48.6,0 88,39.4 88,88" />
      <path
         id="path863"
         style="fill:#ff0000;fill-opacity:1;fill-rule:nonzero;stroke:none"
         d="m 2915,1634.25 c 47.22,0 85.5,-38.28 85.5,-85.5 v 0 c 0,-47.22 -38.28,-85.5 -85.5,-85.5 -47.22,0 -85.5,38.28 -85.5,85.5 0,47.22 38.28,85.5 85.5,85.5 z m 0,5 c -49.98,0 -90.5,-40.52 -90.5,-90.5 0,-49.98 40.52,-90.5 90.5,-90.5 49.98,0 90.5,40.52 90.5,90.5 v 0 c 0,49.98 -40.52,90.5 -90.5,90.5" />
      <path
         id="path865"
         style="fill:none;stroke:#0000ff;stroke-width:30;stroke-linecap:butt;stroke-linejoin:miter;stroke-miterlimit:10;stroke-dasharray:none;stroke-opacity:1"
         d="m 2835.94,1374.06 158.12,-158.12 m -158.12,0 158.12,158.12" />
      <path
         id="path867"
         style="fill:#ffffff;fill-opacity:1;fill-rule:nonzero;stroke:none"
         d="M 4790,280 H 6820 V 2310 H 4790 Z" />
      <path
         id="path869"
         style="fill:none;stroke:#262626;stroke-width:20;stroke-linecap:square;stroke-linejoin:round;stroke-miterlimit:10;stroke-dasharray:none;stroke-opacity:1"
         d="M 5805,280 V 2310" />
      <path
         id="path871"
         style="fill:none;stroke:#000000;stroke-width:30;stroke-linecap:butt;stroke-linejoin:bevel;stroke-miterlimit:10;stroke-dasharray:30, 30;stroke-dashoffset:0;stroke-opacity:1"
         d="m 6312.5,1295 -1.02,32.19 -3.06,32.06 -5.09,31.79 -7.1,31.42 -9.07,30.9 -11.01,30.26 -12.91,29.5 -14.76,28.62 -16.54,27.64 -18.27,26.52 -19.9,25.31 -21.48,24.01 -22.95,22.59 -24.33,21.08 -25.63,19.51 -26.81,17.84 -27.89,16.1 -28.86,14.3 -29.7,12.44 -30.43,10.53 -31.04,8.58 -31.52,6.6 -31.88,4.58 -32.1,2.56 -32.2,0.51 -32.17,-1.54 -32,-3.57 -31.72,-5.59 -31.3,-7.59 -30.75,-9.56 -30.08,-11.5 -29.29,-13.37 -28.39,-15.21 -27.36,-16.98 -26.24,-18.68 -24.99,-20.31 -23.66,-21.85 -22.22,-23.3 -20.7,-24.67 -19.1,-25.94 -17.41,-27.09 -15.65,-28.14 -13.84,-29.08 -11.97,-29.89 -10.05,-30.6 -8.09,-31.17 -6.1,-31.62 -4.07,-31.95 -2.04,-32.14 v -32.2 l 2.04,-32.14 4.07,-31.95 6.1,-31.62 8.09,-31.17 10.05,-30.6 11.97,-29.89 13.84,-29.08 15.65,-28.14 17.41,-27.09 19.1,-25.939 20.7,-24.672 22.22,-23.3 23.66,-21.848 24.99,-20.313 26.24,-18.679 27.36,-16.981 28.39,-15.207 29.29,-13.371 30.08,-11.5 30.75,-9.558 31.3,-7.59 31.72,-5.59 32,-3.57 32.17,-1.543 32.2,0.511 32.1,2.559 31.88,4.582 31.52,6.598 31.04,8.582 30.43,10.531 29.7,12.437 28.86,14.301 27.89,16.102 26.81,17.84 25.63,19.507 24.33,21.082 22.95,22.59 21.48,24.008 19.9,25.313 18.27,26.518 16.54,27.64 14.76,28.62 12.91,29.5 11.01,30.26 9.07,30.9 7.1,31.41 5.09,31.8 3.06,32.06 1.02,32.19" />
      <path
         id="path873"
         style="fill:#ff0000;fill-opacity:1;fill-rule:nonzero;stroke:none"
         d="m 5893,1990.36 c 0,48.59 -39.4,88 -88,88 -48.6,0 -88,-39.41 -88,-88 0,-48.61 39.4,-88 88,-88 48.6,0 88,39.39 88,88" />
      <path
         id="path875"
         style="fill:#ff0000;fill-opacity:1;fill-rule:nonzero;stroke:none"
         d="m 5805,2075.86 c 47.22,0 85.5,-38.29 85.5,-85.5 v 0 c 0,-47.23 -38.28,-85.5 -85.5,-85.5 -47.22,0 -85.5,38.27 -85.5,85.5 0,47.21 38.28,85.5 85.5,85.5 z m 0,5 c -49.98,0 -90.5,-40.52 -90.5,-90.5 0,-49.98 40.52,-90.5 90.5,-90.5 49.98,0 90.5,40.52 90.5,90.5 v 0 c 0,49.98 -40.52,90.5 -90.5,90.5" />
      <path
         id="path877"
         style="fill:#ff0000;fill-opacity:1;fill-rule:nonzero;stroke:none"
         d="m 5893,1665.39 c 0,48.61 -39.4,88 -88,88 -48.6,0 -88,-39.39 -88,-88 0,-48.59 39.4,-88 88,-88 48.6,0 88,39.41 88,88" />
      <path
         id="path879"
         style="fill:#ff0000;fill-opacity:1;fill-rule:nonzero;stroke:none"
         d="m 5805,1750.89 c 47.22,0 85.5,-38.27 85.5,-85.5 v 0 c 0,-47.21 -38.28,-85.5 -85.5,-85.5 -47.22,0 -85.5,38.29 -85.5,85.5 0,47.23 38.28,85.5 85.5,85.5 z m 0,5 c -49.98,0 -90.5,-40.51 -90.5,-90.5 0,-49.98 40.52,-90.5 90.5,-90.5 49.98,0 90.5,40.52 90.5,90.5 v 0 c 0,49.99 -40.52,90.5 -90.5,90.5" />
      <path
         id="path881"
         style="fill:none;stroke:#0000ff;stroke-width:30;stroke-linecap:butt;stroke-linejoin:miter;stroke-miterlimit:10;stroke-dasharray:none;stroke-opacity:1"
         d="m 5725.94,1374.06 158.12,-158.12 m -158.12,0 158.12,158.12" />
      <path
         id="path883"
         style="fill:#ffffff;fill-opacity:1;fill-rule:nonzero;stroke:none"
         d="M 7670,280 H 9700 V 2310 H 7670 Z" />
      <path
         id="path885"
         style="fill:none;stroke:#262626;stroke-width:20;stroke-linecap:square;stroke-linejoin:round;stroke-miterlimit:10;stroke-dasharray:none;stroke-opacity:1"
         d="M 8685,280 V 2310" />
      <path
         id="path887"
         style="fill:none;stroke:#000000;stroke-width:30;stroke-linecap:butt;stroke-linejoin:bevel;stroke-miterlimit:10;stroke-dasharray:30, 30;stroke-dashoffset:0;stroke-opacity:1"
         d="m 9192.5,1295 -1.02,32.19 -3.06,32.06 -5.09,31.79 -7.1,31.42 -9.07,30.9 -11.01,30.26 -12.91,29.5 -14.76,28.62 -16.54,27.64 -18.27,26.52 -19.9,25.31 -21.48,24.01 -22.95,22.59 -24.33,21.08 -25.63,19.51 -26.81,17.84 -27.89,16.1 -28.86,14.3 -29.7,12.44 -30.43,10.53 -31.04,8.58 -31.52,6.6 -31.88,4.58 -32.1,2.56 -32.2,0.51 -32.17,-1.54 -32,-3.57 -31.72,-5.59 -31.3,-7.59 -30.75,-9.56 -30.08,-11.5 -29.29,-13.37 -28.39,-15.21 -27.36,-16.98 -26.24,-18.68 -24.99,-20.31 -23.66,-21.85 -22.22,-23.3 -20.7,-24.67 -19.1,-25.94 -17.41,-27.09 -15.65,-28.14 -13.84,-29.08 -11.97,-29.89 -10.05,-30.6 -8.09,-31.17 -6.1,-31.62 -4.07,-31.95 -2.04,-32.14 v -32.2 l 2.04,-32.14 4.07,-31.95 6.1,-31.62 8.09,-31.17 10.05,-30.6 11.97,-29.89 13.84,-29.08 15.65,-28.14 17.41,-27.09 19.1,-25.939 20.7,-24.672 22.22,-23.3 23.66,-21.848 24.99,-20.313 26.24,-18.679 27.36,-16.981 28.39,-15.207 29.29,-13.371 30.08,-11.5 30.75,-9.558 31.3,-7.59 31.72,-5.59 32,-3.57 32.17,-1.543 32.2,0.511 32.1,2.559 31.88,4.582 31.52,6.598 31.04,8.582 30.43,10.531 29.7,12.437 28.86,14.301 27.89,16.102 26.81,17.84 25.63,19.507 24.33,21.082 22.95,22.59 21.48,24.008 19.9,25.313 18.27,26.518 16.54,27.64 14.76,28.62 12.91,29.5 11.01,30.26 9.07,30.9 7.1,31.41 5.09,31.8 3.06,32.06 1.02,32.19" />
      <path
         id="path889"
         style="fill:#ff0000;fill-opacity:1;fill-rule:nonzero;stroke:none"
         d="m 8773,1802.5 c 0,48.6 -39.4,88 -88,88 -48.6,0 -88,-39.4 -88,-88 0,-48.6 39.4,-88 88,-88 48.6,0 88,39.4 88,88" />
      <path
         id="path891"
         style="fill:#ff0000;fill-opacity:1;fill-rule:nonzero;stroke:none"
         d="m 8685,1888 c 47.22,0 85.5,-38.28 85.5,-85.5 v 0 c 0,-47.22 -38.28,-85.5 -85.5,-85.5 -47.22,0 -85.5,38.28 -85.5,85.5 0,47.22 38.28,85.5 85.5,85.5 z m 0,5 c -49.98,0 -90.5,-40.52 -90.5,-90.5 0,-49.98 40.52,-90.5 90.5,-90.5 49.98,0 90.5,40.52 90.5,90.5 v 0 c 0,49.98 -40.52,90.5 -90.5,90.5" />
      <path
         id="path893"
         style="fill:#ff0000;fill-opacity:1;fill-rule:nonzero;stroke:none"
         d="m 8773,1802.5 c 0,48.6 -39.4,88 -88,88 -48.6,0 -88,-39.4 -88,-88 0,-48.6 39.4,-88 88,-88 48.6,0 88,39.4 88,88" />
      <path
         id="path895"
         style="fill:#ff0000;fill-opacity:1;fill-rule:nonzero;stroke:none"
         d="m 8685,1888 c 47.22,0 85.5,-38.28 85.5,-85.5 v 0 c 0,-47.22 -38.28,-85.5 -85.5,-85.5 -47.22,0 -85.5,38.28 -85.5,85.5 0,47.22 38.28,85.5 85.5,85.5 z m 0,5 c -49.98,0 -90.5,-40.52 -90.5,-90.5 0,-49.98 40.52,-90.5 90.5,-90.5 49.98,0 90.5,40.52 90.5,90.5 v 0 c 0,49.98 -40.52,90.5 -90.5,90.5" />
      <path
         id="path897"
         style="fill:none;stroke:#0000ff;stroke-width:30;stroke-linecap:butt;stroke-linejoin:miter;stroke-miterlimit:10;stroke-dasharray:none;stroke-opacity:1"
         d="m 8605.94,1374.06 158.12,-158.12 m -158.12,0 158.12,158.12" />
      <path
         id="path899"
         style="fill:#ffffff;fill-opacity:1;fill-rule:nonzero;stroke:none"
         d="m 10560,280 h 2030 v 2030 h -2030 z" />
      <path
         id="path901"
         style="fill:none;stroke:#262626;stroke-width:20;stroke-linecap:square;stroke-linejoin:round;stroke-miterlimit:10;stroke-dasharray:none;stroke-opacity:1"
         d="M 11575,280 V 2310" />
      <path
         id="path903"
         style="fill:none;stroke:#000000;stroke-width:30;stroke-linecap:butt;stroke-linejoin:bevel;stroke-miterlimit:10;stroke-dasharray:30, 30;stroke-dashoffset:0;stroke-opacity:1"
         d="m 12082.5,1295 -1,32.19 -3.1,32.06 -5.1,31.79 -7.1,31.42 -9,30.9 -11,30.26 -13,29.5 -14.7,28.62 -16.6,27.64 -18.2,26.52 -19.9,25.31 -21.5,24.01 -23,22.59 -24.3,21.08 -25.6,19.51 -26.8,17.84 -27.9,16.1 -28.9,14.3 -29.7,12.44 -30.4,10.53 -31.1,8.58 -31.5,6.6 -31.8,4.58 -32.1,2.56 -32.3,0.51 -32.1,-1.54 -32,-3.57 -31.7,-5.59 -31.3,-7.59 -30.8,-9.56 -30.1,-11.5 -29.3,-13.37 -28.3,-15.21 -27.4,-16.98 -26.2,-18.68 -25,-20.31 -23.7,-21.85 -22.2,-23.3 -20.7,-24.67 -19.1,-25.94 -17.4,-27.09 -15.7,-28.14 -13.8,-29.08 -12,-29.89 -10,-30.6 -8.1,-31.17 -6.1,-31.62 -4.1,-31.95 -2,-32.14 v -32.2 l 2,-32.14 4.1,-31.95 6.1,-31.62 8.1,-31.17 10,-30.6 12,-29.89 13.8,-29.08 15.7,-28.14 17.4,-27.09 19.1,-25.939 20.7,-24.672 22.2,-23.3 23.7,-21.848 25,-20.313 26.2,-18.679 27.4,-16.981 28.3,-15.207 29.3,-13.371 30.1,-11.5 30.8,-9.558 31.3,-7.59 31.7,-5.59 32,-3.57 32.1,-1.543 32.3,0.511 32.1,2.559 31.8,4.582 31.5,6.598 31.1,8.582 30.4,10.531 29.7,12.437 28.9,14.301 27.9,16.102 26.8,17.84 25.6,19.507 24.3,21.082 23,22.59 21.5,24.008 19.9,25.313 18.2,26.518 16.6,27.64 14.7,28.62 13,29.5 11,30.26 9,30.9 7.1,31.41 5.1,31.8 3.1,32.06 1,32.19" />
      <path
         id="path905"
         style="fill:#ff0000;fill-opacity:1;fill-rule:nonzero;stroke:none"
         d="m 11821.5,1777.13 c 0,48.6 -39.4,88 -88,88 -48.6,0 -88,-39.4 -88,-88 0,-48.61 39.4,-88 88,-88 48.6,0 88,39.39 88,88" />
      <path
         id="path907"
         style="fill:#ff0000;fill-opacity:1;fill-rule:nonzero;stroke:none"
         d="m 11733.5,1862.63 c 47.2,0 85.5,-38.29 85.5,-85.5 v 0 c 0,-47.22 -38.3,-85.5 -85.5,-85.5 -47.3,0 -85.5,38.28 -85.5,85.5 0,47.21 38.2,85.5 85.5,85.5 z m 0,5 c -50,0 -90.5,-40.52 -90.5,-90.5 0,-49.99 40.5,-90.5 90.5,-90.5 49.9,0 90.5,40.51 90.5,90.5 v 0 c 0,49.98 -40.6,90.5 -90.5,90.5" />
      <path
         id="path909"
         style="fill:#ff0000;fill-opacity:1;fill-rule:nonzero;stroke:none"
         d="m 11504.5,1777.13 c 0,48.6 -39.4,88 -88,88 -48.6,0 -88,-39.4 -88,-88 0,-48.61 39.4,-88 88,-88 48.6,0 88,39.39 88,88" />
      <path
         id="path911"
         style="fill:#ff0000;fill-opacity:1;fill-rule:nonzero;stroke:none"
         d="m 11416.5,1862.63 c 47.3,0 85.5,-38.29 85.5,-85.5 v 0 c 0,-47.22 -38.2,-85.5 -85.5,-85.5 -47.2,0 -85.5,38.28 -85.5,85.5 0,47.21 38.3,85.5 85.5,85.5 z m 0,5 c -49.9,0 -90.5,-40.52 -90.5,-90.5 0,-49.99 40.6,-90.5 90.5,-90.5 50,0 90.5,40.51 90.5,90.5 v 0 c 0,49.98 -40.5,90.5 -90.5,90.5" />
      <path
         id="path913"
         style="fill:none;stroke:#0000ff;stroke-width:30;stroke-linecap:butt;stroke-linejoin:miter;stroke-miterlimit:10;stroke-dasharray:none;stroke-opacity:1"
         d="m 11495.9,1374.06 158.2,-158.12 m -158.2,0 158.2,158.12" />
    </g>
    <g
       transform="matrix(0.01478571,0,0,-0.0148,2,73.939)"
       id="g995">
      <path
         id="path997"
         style="fill:#ffffff;fill-opacity:1;fill-rule:nonzero;stroke:none"
         d="M 0,0 H 14000 V 2500 H 0 Z" />
      <path
         id="path999"
         style="fill:#ffffff;fill-opacity:1;fill-rule:nonzero;stroke:none"
         d="M 0,0 H 14000 V 2500 H 0 Z" />
      <path
         id="path1001"
         style="fill:#ffffff;fill-opacity:1;fill-rule:nonzero;stroke:none"
         d="M 1900,280 H 3930 V 2310 H 1900 Z" />
      <path
         id="path1003"
         style="fill:none;stroke:#262626;stroke-width:20;stroke-linecap:square;stroke-linejoin:round;stroke-miterlimit:10;stroke-dasharray:none;stroke-opacity:1"
         d="M 2915,280 V 2310" />
      <path
         id="path1005"
         style="fill:none;stroke:#000000;stroke-width:30;stroke-linecap:butt;stroke-linejoin:bevel;stroke-miterlimit:10;stroke-dasharray:30, 30;stroke-dashoffset:0;stroke-opacity:1"
         d="m 3422.5,1295 -1.02,32.19 -3.06,32.06 -5.09,31.79 -7.1,31.42 -9.07,30.9 -11.01,30.26 -12.91,29.5 -14.76,28.62 -16.54,27.64 -18.27,26.52 -19.9,25.31 -21.48,24.01 -22.95,22.59 -24.33,21.08 -25.63,19.51 -26.81,17.84 -27.89,16.1 -28.86,14.3 -29.7,12.44 -30.43,10.53 -31.04,8.58 -31.52,6.6 -31.88,4.58 -32.1,2.56 -32.2,0.51 -32.17,-1.54 -32,-3.57 -31.72,-5.59 -31.3,-7.59 -30.75,-9.56 -30.08,-11.5 -29.29,-13.37 -28.39,-15.21 -27.36,-16.98 -26.24,-18.68 -24.99,-20.31 -23.66,-21.85 -22.22,-23.3 -20.7,-24.67 -19.1,-25.94 -17.41,-27.09 -15.65,-28.14 -13.85,-29.08 -11.96,-29.89 -10.05,-30.6 -8.09,-31.17 -6.1,-31.62 -4.07,-31.95 -2.04,-32.14 v -32.2 l 2.04,-32.14 4.07,-31.95 6.1,-31.62 8.09,-31.17 10.05,-30.6 11.96,-29.89 13.85,-29.08 15.65,-28.14 17.41,-27.09 19.1,-25.939 20.7,-24.672 22.22,-23.3 23.66,-21.848 24.99,-20.313 26.24,-18.679 27.36,-16.981 28.39,-15.207 29.29,-13.371 30.08,-11.5 30.75,-9.558 31.3,-7.59 31.72,-5.59 32,-3.57 32.17,-1.543 32.2,0.511 32.1,2.559 31.88,4.582 31.52,6.598 31.04,8.582 30.43,10.531 29.7,12.437 28.86,14.301 27.89,16.102 26.81,17.84 25.63,19.507 24.33,21.082 22.95,22.59 21.48,24.008 19.9,25.313 18.27,26.518 16.54,27.64 14.76,28.62 12.91,29.5 11.01,30.26 9.07,30.9 7.1,31.41 5.09,31.8 3.06,32.06 1.02,32.19" />
      <path
         id="path1007"
         style="fill:#ff0000;fill-opacity:1;fill-rule:nonzero;stroke:none"
         d="m 3510.5,1295 c 0,48.6 -39.4,88 -88,88 -48.6,0 -88,-39.4 -88,-88 0,-48.6 39.4,-88 88,-88 48.6,0 88,39.4 88,88" />
      <path
         id="path1009"
         style="fill:#ff0000;fill-opacity:1;fill-rule:nonzero;stroke:none"
         d="m 3422.5,1380.5 c 47.22,0 85.5,-38.28 85.5,-85.5 v 0 c 0,-47.22 -38.28,-85.5 -85.5,-85.5 -47.22,0 -85.5,38.28 -85.5,85.5 0,47.22 38.28,85.5 85.5,85.5 z m 0,5 c -49.98,0 -90.5,-40.52 -90.5,-90.5 0,-49.98 40.52,-90.5 90.5,-90.5 49.98,0 90.5,40.52 90.5,90.5 v 0 c 0,49.98 -40.52,90.5 -90.5,90.5" />
      <path
         id="path1011"
         style="fill:#ff0000;fill-opacity:1;fill-rule:nonzero;stroke:none"
         d="m 2495.5,1295 c 0,48.6 -39.4,88 -88,88 -48.6,0 -88,-39.4 -88,-88 0,-48.6 39.4,-88 88,-88 48.6,0 88,39.4 88,88" />
      <path
         id="path1013"
         style="fill:#ff0000;fill-opacity:1;fill-rule:nonzero;stroke:none"
         d="m 2407.5,1380.5 c 47.22,0 85.5,-38.28 85.5,-85.5 v 0 c 0,-47.22 -38.28,-85.5 -85.5,-85.5 -47.22,0 -85.5,38.28 -85.5,85.5 0,47.22 38.28,85.5 85.5,85.5 z m 0,5 c -49.98,0 -90.5,-40.52 -90.5,-90.5 0,-49.98 40.52,-90.5 90.5,-90.5 49.98,0 90.5,40.52 90.5,90.5 v 0 c 0,49.98 -40.52,90.5 -90.5,90.5" />
      <path
         id="path1015"
         style="fill:none;stroke:#0000ff;stroke-width:30;stroke-linecap:butt;stroke-linejoin:miter;stroke-miterlimit:10;stroke-dasharray:none;stroke-opacity:1"
         d="m 2835.94,1374.06 158.12,-158.12 m -158.12,0 158.12,158.12" />
      <path
         id="path1017"
         style="fill:#ffffff;fill-opacity:1;fill-rule:nonzero;stroke:none"
         d="M 4790,280 H 6820 V 2310 H 4790 Z" />
      <path
         id="path1019"
         style="fill:none;stroke:#262626;stroke-width:20;stroke-linecap:square;stroke-linejoin:round;stroke-miterlimit:10;stroke-dasharray:none;stroke-opacity:1"
         d="M 5805,280 V 2310" />
      <path
         id="path1021"
         style="fill:none;stroke:#000000;stroke-width:30;stroke-linecap:butt;stroke-linejoin:bevel;stroke-miterlimit:10;stroke-dasharray:30, 30;stroke-dashoffset:0;stroke-opacity:1"
         d="m 6312.5,1295 -1.02,32.19 -3.06,32.06 -5.09,31.79 -7.1,31.42 -9.07,30.9 -11.01,30.26 -12.91,29.5 -14.76,28.62 -16.54,27.64 -18.27,26.52 -19.9,25.31 -21.48,24.01 -22.95,22.59 -24.33,21.08 -25.63,19.51 -26.81,17.84 -27.89,16.1 -28.86,14.3 -29.7,12.44 -30.43,10.53 -31.04,8.58 -31.52,6.6 -31.88,4.58 -32.1,2.56 -32.2,0.51 -32.17,-1.54 -32,-3.57 -31.72,-5.59 -31.3,-7.59 -30.75,-9.56 -30.08,-11.5 -29.29,-13.37 -28.39,-15.21 -27.36,-16.98 -26.24,-18.68 -24.99,-20.31 -23.66,-21.85 -22.22,-23.3 -20.7,-24.67 -19.1,-25.94 -17.41,-27.09 -15.65,-28.14 -13.84,-29.08 -11.97,-29.89 -10.05,-30.6 -8.09,-31.17 -6.1,-31.62 -4.07,-31.95 -2.04,-32.14 v -32.2 l 2.04,-32.14 4.07,-31.95 6.1,-31.62 8.09,-31.17 10.05,-30.6 11.97,-29.89 13.84,-29.08 15.65,-28.14 17.41,-27.09 19.1,-25.939 20.7,-24.672 22.22,-23.3 23.66,-21.848 24.99,-20.313 26.24,-18.679 27.36,-16.981 28.39,-15.207 29.29,-13.371 30.08,-11.5 30.75,-9.558 31.3,-7.59 31.72,-5.59 32,-3.57 32.17,-1.543 32.2,0.511 32.1,2.559 31.88,4.582 31.52,6.598 31.04,8.582 30.43,10.531 29.7,12.437 28.86,14.301 27.89,16.102 26.81,17.84 25.63,19.507 24.33,21.082 22.95,22.59 21.48,24.008 19.9,25.313 18.27,26.518 16.54,27.64 14.76,28.62 12.91,29.5 11.01,30.26 9.07,30.9 7.1,31.41 5.09,31.8 3.06,32.06 1.02,32.19" />
      <path
         id="path1023"
         style="fill:#ff0000;fill-opacity:1;fill-rule:nonzero;stroke:none"
         d="m 6051.47,812.875 c 0,48.602 -39.4,88 -88,88 -48.6,0 -88,-39.398 -88,-88 0,-48.602 39.4,-88 88,-88 48.6,0 88,39.398 88,88" />
      <path
         id="path1025"
         style="fill:#ff0000;fill-opacity:1;fill-rule:nonzero;stroke:none"
         d="m 5963.47,898.375 c 47.22,0 85.5,-38.281 85.5,-85.5 v 0 c 0,-47.219 -38.28,-85.5 -85.5,-85.5 -47.22,0 -85.5,38.281 -85.5,85.5 0,47.219 38.28,85.5 85.5,85.5 z m 0,5 c -49.98,0 -90.5,-40.52 -90.5,-90.5 0,-49.98 40.52,-90.5 90.5,-90.5 49.98,0 90.5,40.52 90.5,90.5 v 0 c 0,49.98 -40.52,90.5 -90.5,90.5" />
      <path
         id="path1027"
         style="fill:#ff0000;fill-opacity:1;fill-rule:nonzero;stroke:none"
         d="m 5734.54,812.875 c 0,48.602 -39.41,88 -88,88 -48.61,0 -88,-39.398 -88,-88 0,-48.602 39.39,-88 88,-88 48.59,0 88,39.398 88,88" />
      <path
         id="path1029"
         style="fill:#ff0000;fill-opacity:1;fill-rule:nonzero;stroke:none"
         d="m 5646.54,898.375 c 47.21,0 85.5,-38.281 85.5,-85.5 v 0 c 0,-47.219 -38.29,-85.5 -85.5,-85.5 -47.23,0 -85.5,38.281 -85.5,85.5 0,47.219 38.27,85.5 85.5,85.5 z m 0,5 c -49.99,0 -90.5,-40.52 -90.5,-90.5 0,-49.98 40.51,-90.5 90.5,-90.5 49.97,0 90.5,40.52 90.5,90.5 v 0 c 0,49.98 -40.53,90.5 -90.5,90.5" />
      <path
         id="path1031"
         style="fill:none;stroke:#0000ff;stroke-width:30;stroke-linecap:butt;stroke-linejoin:miter;stroke-miterlimit:10;stroke-dasharray:none;stroke-opacity:1"
         d="m 5725.94,1374.06 158.12,-158.12 m -158.12,0 158.12,158.12" />
      <path
         id="path1033"
         style="fill:#ffffff;fill-opacity:1;fill-rule:nonzero;stroke:none"
         d="M 7670,280 H 9700 V 2310 H 7670 Z" />
      <path
         id="path1035"
         style="fill:none;stroke:#262626;stroke-width:20;stroke-linecap:square;stroke-linejoin:round;stroke-miterlimit:10;stroke-dasharray:none;stroke-opacity:1"
         d="M 8685,280 V 2310" />
      <path
         id="path1037"
         style="fill:none;stroke:#000000;stroke-width:30;stroke-linecap:butt;stroke-linejoin:bevel;stroke-miterlimit:10;stroke-dasharray:30, 30;stroke-dashoffset:0;stroke-opacity:1"
         d="m 9192.5,1295 -1.02,32.19 -3.06,32.06 -5.09,31.79 -7.1,31.42 -9.07,30.9 -11.01,30.26 -12.91,29.5 -14.76,28.62 -16.54,27.64 -18.27,26.52 -19.9,25.31 -21.48,24.01 -22.95,22.59 -24.33,21.08 -25.63,19.51 -26.81,17.84 -27.89,16.1 -28.86,14.3 -29.7,12.44 -30.43,10.53 -31.04,8.58 -31.52,6.6 -31.88,4.58 -32.1,2.56 -32.2,0.51 -32.17,-1.54 -32,-3.57 -31.72,-5.59 -31.3,-7.59 -30.75,-9.56 -30.08,-11.5 -29.29,-13.37 -28.39,-15.21 -27.36,-16.98 -26.24,-18.68 -24.99,-20.31 -23.66,-21.85 -22.22,-23.3 -20.7,-24.67 -19.1,-25.94 -17.41,-27.09 -15.65,-28.14 -13.84,-29.08 -11.97,-29.89 -10.05,-30.6 -8.09,-31.17 -6.1,-31.62 -4.07,-31.95 -2.04,-32.14 v -32.2 l 2.04,-32.14 4.07,-31.95 6.1,-31.62 8.09,-31.17 10.05,-30.6 11.97,-29.89 13.84,-29.08 15.65,-28.14 17.41,-27.09 19.1,-25.939 20.7,-24.672 22.22,-23.3 23.66,-21.848 24.99,-20.313 26.24,-18.679 27.36,-16.981 28.39,-15.207 29.29,-13.371 30.08,-11.5 30.75,-9.558 31.3,-7.59 31.72,-5.59 32,-3.57 32.17,-1.543 32.2,0.511 32.1,2.559 31.88,4.582 31.52,6.598 31.04,8.582 30.43,10.531 29.7,12.437 28.86,14.301 27.89,16.102 26.81,17.84 25.63,19.507 24.33,21.082 22.95,22.59 21.48,24.008 19.9,25.313 18.27,26.518 16.54,27.64 14.76,28.62 12.91,29.5 11.01,30.26 9.07,30.9 7.1,31.41 5.09,31.8 3.06,32.06 1.02,32.19" />
      <path
         id="path1039"
         style="fill:#ff0000;fill-opacity:1;fill-rule:nonzero;stroke:none"
         d="m 8773,787.5 c 0,48.602 -39.4,88 -88,88 -48.6,0 -88,-39.398 -88,-88 0,-48.602 39.4,-88 88,-88 48.6,0 88,39.398 88,88" />
      <path
         id="path1041"
         style="fill:#ff0000;fill-opacity:1;fill-rule:nonzero;stroke:none"
         d="m 8685,873 c 47.22,0 85.5,-38.281 85.5,-85.5 v 0 c 0,-47.219 -38.28,-85.5 -85.5,-85.5 -47.22,0 -85.5,38.281 -85.5,85.5 0,47.219 38.28,85.5 85.5,85.5 z m 0,5 c -49.98,0 -90.5,-40.52 -90.5,-90.5 0,-49.98 40.52,-90.5 90.5,-90.5 49.98,0 90.5,40.52 90.5,90.5 v 0 c 0,49.98 -40.52,90.5 -90.5,90.5" />
      <path
         id="path1043"
         style="fill:#ff0000;fill-opacity:1;fill-rule:nonzero;stroke:none"
         d="m 8773,787.5 c 0,48.602 -39.4,88 -88,88 -48.6,0 -88,-39.398 -88,-88 0,-48.602 39.4,-88 88,-88 48.6,0 88,39.398 88,88" />
      <path
         id="path1045"
         style="fill:#ff0000;fill-opacity:1;fill-rule:nonzero;stroke:none"
         d="m 8685,873 c 47.22,0 85.5,-38.281 85.5,-85.5 v 0 c 0,-47.219 -38.28,-85.5 -85.5,-85.5 -47.22,0 -85.5,38.281 -85.5,85.5 0,47.219 38.28,85.5 85.5,85.5 z m 0,5 c -49.98,0 -90.5,-40.52 -90.5,-90.5 0,-49.98 40.52,-90.5 90.5,-90.5 49.98,0 90.5,40.52 90.5,90.5 v 0 c 0,49.98 -40.52,90.5 -90.5,90.5" />
      <path
         id="path1047"
         style="fill:none;stroke:#0000ff;stroke-width:30;stroke-linecap:butt;stroke-linejoin:miter;stroke-miterlimit:10;stroke-dasharray:none;stroke-opacity:1"
         d="m 8605.94,1374.06 158.12,-158.12 m -158.12,0 158.12,158.12" />
      <path
         id="path1049"
         style="fill:#ffffff;fill-opacity:1;fill-rule:nonzero;stroke:none"
         d="m 10560,280 h 2030 v 2030 h -2030 z" />
      <path
         id="path1051"
         style="fill:none;stroke:#262626;stroke-width:20;stroke-linecap:square;stroke-linejoin:round;stroke-miterlimit:10;stroke-dasharray:none;stroke-opacity:1"
         d="M 11575,280 V 2310" />
      <path
         id="path1053"
         style="fill:none;stroke:#000000;stroke-width:30;stroke-linecap:butt;stroke-linejoin:bevel;stroke-miterlimit:10;stroke-dasharray:30, 30;stroke-dashoffset:0;stroke-opacity:1"
         d="m 12082.5,1295 -1,32.19 -3.1,32.06 -5.1,31.79 -7.1,31.42 -9,30.9 -11,30.26 -13,29.5 -14.7,28.62 -16.6,27.64 -18.2,26.52 -19.9,25.31 -21.5,24.01 -23,22.59 -24.3,21.08 -25.6,19.51 -26.8,17.84 -27.9,16.1 -28.9,14.3 -29.7,12.44 -30.4,10.53 -31.1,8.58 -31.5,6.6 -31.8,4.58 -32.1,2.56 -32.3,0.51 -32.1,-1.54 -32,-3.57 -31.7,-5.59 -31.3,-7.59 -30.8,-9.56 -30.1,-11.5 -29.3,-13.37 -28.3,-15.21 -27.4,-16.98 -26.2,-18.68 -25,-20.31 -23.7,-21.85 -22.2,-23.3 -20.7,-24.67 -19.1,-25.94 -17.4,-27.09 -15.7,-28.14 -13.8,-29.08 -12,-29.89 -10,-30.6 -8.1,-31.17 -6.1,-31.62 -4.1,-31.95 -2,-32.14 v -32.2 l 2,-32.14 4.1,-31.95 6.1,-31.62 8.1,-31.17 10,-30.6 12,-29.89 13.8,-29.08 15.7,-28.14 17.4,-27.09 19.1,-25.939 20.7,-24.672 22.2,-23.3 23.7,-21.848 25,-20.313 26.2,-18.679 27.4,-16.981 28.3,-15.207 29.3,-13.371 30.1,-11.5 30.8,-9.558 31.3,-7.59 31.7,-5.59 32,-3.57 32.1,-1.543 32.3,0.511 32.1,2.559 31.8,4.582 31.5,6.598 31.1,8.582 30.4,10.531 29.7,12.437 28.9,14.301 27.9,16.102 26.8,17.84 25.6,19.507 24.3,21.082 23,22.59 21.5,24.008 19.9,25.313 18.2,26.518 16.6,27.64 14.7,28.62 13,29.5 11,30.26 9,30.9 7.1,31.41 5.1,31.8 3.1,32.06 1,32.19" />
      <path
         id="path1055"
         style="fill:#ff0000;fill-opacity:1;fill-rule:nonzero;stroke:none"
         d="m 11663,1041.25 c 0,48.6 -39.4,88 -88,88 -48.6,0 -88,-39.4 -88,-88 0,-48.602 39.4,-88 88,-88 48.6,0 88,39.398 88,88" />
      <path
         id="path1057"
         style="fill:#ff0000;fill-opacity:1;fill-rule:nonzero;stroke:none"
         d="m 11575,1126.75 c 47.2,0 85.5,-38.28 85.5,-85.5 v 0 c 0,-47.219 -38.3,-85.5 -85.5,-85.5 -47.2,0 -85.5,38.281 -85.5,85.5 0,47.22 38.3,85.5 85.5,85.5 z m 0,5 c -50,0 -90.5,-40.52 -90.5,-90.5 0,-49.98 40.5,-90.5 90.5,-90.5 50,0 90.5,40.52 90.5,90.5 v 0 c 0,49.98 -40.5,90.5 -90.5,90.5" />
      <path
         id="path1059"
         style="fill:#ff0000;fill-opacity:1;fill-rule:nonzero;stroke:none"
         d="m 11663,280 c 0,48.602 -39.4,88 -88,88 -48.6,0 -88,-39.398 -88,-88 0,-48.602 39.4,-88 88,-88 48.6,0 88,39.398 88,88" />
      <path
         id="path1061"
         style="fill:#ff0000;fill-opacity:1;fill-rule:nonzero;stroke:none"
         d="m 11575,365.5 c 47.2,0 85.5,-38.281 85.5,-85.5 v 0 c 0,-47.219 -38.3,-85.5 -85.5,-85.5 -47.2,0 -85.5,38.281 -85.5,85.5 0,47.219 38.3,85.5 85.5,85.5 z m 0,5 c -50,0 -90.5,-40.52 -90.5,-90.5 0,-49.98 40.5,-90.5 90.5,-90.5 50,0 90.5,40.52 90.5,90.5 v 0 c 0,49.98 -40.5,90.5 -90.5,90.5" />
      <path
         id="path1063"
         style="fill:none;stroke:#0000ff;stroke-width:30;stroke-linecap:butt;stroke-linejoin:miter;stroke-miterlimit:10;stroke-dasharray:none;stroke-opacity:1"
         d="m 11495.9,1374.06 158.2,-158.12 m -158.2,0 158.2,158.12" />
    </g>
  </g>
</svg>
